<svg width="17" height="17" viewBox="0 0 17 17" fill="none" xmlns="http://www.w3.org/2000/svg">
<path d="M1.49133 9.44493C1.55948 9.37665 1.64493 9.32821 1.73853 9.30481C1.83212 9.28141 1.93032 9.28394 2.02258 9.31212C3.03556 9.61836 4.11265 9.64404 5.13907 9.38642C6.16549 9.1288 7.10279 8.59753 7.85109 7.84923C8.5994 7.10093 9.13066 6.16363 9.38828 5.1372C9.64591 4.11078 9.62023 3.0337 9.31399 2.02072C9.28557 1.92841 9.28285 1.83011 9.30612 1.73637C9.32939 1.64264 9.37777 1.55702 9.44606 1.48873C9.51436 1.42044 9.59998 1.37205 9.69371 1.34878C9.78744 1.32551 9.88575 1.32823 9.97805 1.35665C11.3785 1.78567 12.608 2.64546 13.4916 3.81369C14.2643 4.83957 14.7356 6.06059 14.8526 7.33957C14.9696 8.61856 14.7277 9.90483 14.1539 11.0539C13.5802 12.2029 12.6974 13.1692 11.6048 13.8442C10.5121 14.5192 9.25292 14.8762 7.9686 14.875C6.47024 14.8796 5.01175 14.3925 3.81688 13.4884C2.64866 12.6049 1.78886 11.3753 1.35985 9.97486C1.33176 9.8829 1.32915 9.78504 1.35231 9.69171C1.37546 9.59839 1.42351 9.5131 1.49133 9.44493ZM4.45571 12.6397C5.58093 13.4873 6.97444 13.8998 8.37969 13.8014C9.78494 13.703 11.1074 13.1003 12.1035 12.1042C13.0996 11.1082 13.7024 9.78582 13.8009 8.38057C13.8995 6.97533 13.487 5.58179 12.6396 4.4565C12.0875 3.7274 11.3737 3.13637 10.5545 2.72994C10.6011 3.05747 10.6247 3.38788 10.6248 3.71872C10.6229 5.54978 9.89467 7.30529 8.59992 8.60004C7.30517 9.8948 5.54966 10.623 3.7186 10.625C3.38709 10.6249 3.05601 10.6013 2.72782 10.5546C3.13464 11.374 3.72613 12.0878 4.45571 12.6397Z" fill="#155DA4"/>
</svg>
