<svg width="14" height="14" viewBox="0 0 14 14" fill="none" xmlns="http://www.w3.org/2000/svg">
<path d="M7.00016 10.7917C9.09424 10.7917 10.7918 9.09412 10.7918 7.00004C10.7918 4.90596 9.09424 3.20837 7.00016 3.20837C4.90608 3.20837 3.2085 4.90596 3.2085 7.00004C3.2085 9.09412 4.90608 10.7917 7.00016 10.7917Z" stroke="#155DA4" stroke-linecap="round" stroke-linejoin="round"/>
<path d="M11.1648 11.165L11.089 11.0891M11.089 2.91079L11.1648 2.83496L11.089 2.91079ZM2.83484 11.165L2.91067 11.0891L2.83484 11.165ZM6.99984 1.21329V1.16663V1.21329ZM6.99984 12.8333V12.7866V12.8333ZM1.21317 6.99996H1.1665H1.21317ZM12.8332 6.99996H12.7865H12.8332ZM2.91067 2.91079L2.83484 2.83496L2.91067 2.91079Z" stroke="#155DA4" stroke-linecap="round" stroke-linejoin="round"/>
</svg>
